<svg id="Layer_1" data-name="Layer 1" xmlns="http://www.w3.org/2000/svg" xmlns:xlink="http://www.w3.org/1999/xlink" viewBox="0 0 123.79 150.976"><defs><style>.cls-1{fill:url(#radial-gradient);}.cls-2{fill:url(#radial-gradient-2);}</style><radialGradient id="radial-gradient" cx="101.339" cy="93.522" r="66.304" gradientTransform="matrix(0.948, 0.318, -0.429, 1.278, 45.422, -58.289)" gradientUnits="userSpaceOnUse"><stop offset="0" stop-color="#eec005"/><stop offset="0.223" stop-color="#ebbe05"/><stop offset="0.4" stop-color="#e1b705"/><stop offset="0.561" stop-color="#d0ab05"/><stop offset="0.713" stop-color="#b99b04"/><stop offset="0.856" stop-color="#9a8604"/><stop offset="0.995" stop-color="#766c03"/><stop offset="1" stop-color="#746b03"/></radialGradient><radialGradient id="radial-gradient-2" cx="73.257" cy="18.985" r="61.584" gradientTransform="matrix(0.93, 0.366, -0.471, 1.196, 14.027, -30.547)" gradientUnits="userSpaceOnUse"><stop offset="0.572" stop-color="#746b03"/><stop offset="0.59" stop-color="#776e03" stop-opacity="0.956"/><stop offset="0.871" stop-color="#a69901" stop-opacity="0.27"/><stop offset="1" stop-color="#b8aa00" stop-opacity="0"/></radialGradient></defs><title>R-ICO-013948</title><g id="Inner_hair_cell"><path id="BG" class="cls-1" d="M153.746,24.512a8.154,8.154,0,0,1,8.149,8.149c.075,44.254-9.84,142.827-64.705,142.827-48.576,0-59.085-28.955-59.085-54.81,0-31.4,32.252-46.88,56.154-59.531a29.532,29.532,0,0,0,15.725-26.1V32.66a8.148,8.148,0,0,1,8.148-8.148Z" transform="translate(-38.105 -24.512)"/><path id="FG" class="cls-2" d="M153.746,24.512a8.154,8.154,0,0,1,8.149,8.149c.075,44.254-9.84,142.827-64.705,142.827-48.576,0-59.085-28.955-59.085-54.81,0-31.4,32.252-46.88,56.154-59.531a29.532,29.532,0,0,0,15.725-26.1V32.66a8.148,8.148,0,0,1,8.148-8.148Z" transform="translate(-38.105 -24.512)"/></g></svg>