<svg id="Layer_1" data-name="Layer 1" xmlns="http://www.w3.org/2000/svg" xmlns:xlink="http://www.w3.org/1999/xlink" viewBox="0 0 46.563 22.585"><defs><style>.cls-1{fill:url(#linear-gradient);}.cls-2{fill:#359671;}.cls-3{font-size:12px;fill:#fff;font-family:Arial-BoldMT, Arial;font-weight:700;}</style><linearGradient id="linear-gradient" x1="154.914" y1="87.317" x2="154.914" y2="107.317" gradientTransform="translate(-131.454 -86.258)" gradientUnits="userSpaceOnUse"><stop offset="0" stop-color="#359671"/><stop offset="1" stop-color="#ffcdd5"/></linearGradient></defs><title>MOB</title><g id="MOB"><rect class="cls-1" x="1.46" y="1.059" width="44" height="20" rx="10" ry="10"/><path class="cls-2" d="M110.549,107.653c-4.616-.009-9.231.43-13.847.837-2.308.205-4.616.388-6.923.457-1.17.051-2.273.086-3.5.081a11.084,11.084,0,0,1-3.922-.723,11.314,11.314,0,0,1-7.027-12.9A11.161,11.161,0,0,1,79.4,88.894a10.945,10.945,0,0,1,7.149-2.212c4.616.282,9.231.437,13.847.335,2.308-.059,4.616-.178,6.923-.341,1.165-.074,2.283-.169,3.486-.223a10.184,10.184,0,0,1,3.8.575A10.673,10.673,0,0,1,120.436,92a10.4,10.4,0,0,1,.875,7.52,11.015,11.015,0,0,1-4.136,5.967A11.519,11.519,0,0,1,110.549,107.653Zm0-.3a8.967,8.967,0,0,0,6.133-2.462,9.19,9.19,0,0,0,2.75-5.728,9.764,9.764,0,0,0-5.73-9.809,8.867,8.867,0,0,0-2.946-.777c-1.1-.1-2.294-.162-3.437-.246-2.308-.164-4.616-.282-6.923-.341-4.616-.1-9.231.053-13.847.335a9.318,9.318,0,0,0-5.609,2.42,9.109,9.109,0,0,0-2.82,5.184,8.635,8.635,0,0,0,1.069,5.666,8.834,8.834,0,0,0,4.334,3.73,7.947,7.947,0,0,0,2.829.629c1.082.042,2.288.043,3.426.1,2.308.069,4.616.252,6.923.457C101.318,106.923,105.934,107.362,110.549,107.353Z" transform="translate(-75.09 -86.444)"/><text class="cls-3" transform="translate(9.867 14.373)">MOB</text></g></svg>